<svg width="33" height="33" viewBox="0 0 33 33" fill="none" xmlns="http://www.w3.org/2000/svg">
<rect opacity="0.15" x="0.595703" y="0.334961" width="32" height="32" rx="7" fill="#2F96F4"/>
<path d="M20.054 9.41829C20.054 9.18899 19.9629 8.96908 19.8008 8.80694C19.6387 8.6448 19.4188 8.55371 19.1895 8.55371H14.002C13.7727 8.55371 13.5527 8.6448 13.3906 8.80694C13.2285 8.96908 13.1374 9.18899 13.1374 9.41829V12.012H20.054V9.41829ZM24.377 23.2516V12.8766C24.377 12.6473 24.2859 12.4274 24.1237 12.2653C23.9616 12.1031 23.7417 12.012 23.5124 12.012H9.67904C9.44973 12.012 9.22982 12.1031 9.06768 12.2653C8.90554 12.4274 8.81445 12.6473 8.81445 12.8766V23.2516C8.81445 23.4809 8.90554 23.7008 9.06768 23.863C9.22982 24.0251 9.44973 24.1162 9.67904 24.1162H23.5124C23.7417 24.1162 23.9616 24.0251 24.1237 23.863C24.2859 23.7008 24.377 23.4809 24.377 23.2516Z" stroke="#D77644" stroke-width="1.5" stroke-linecap="round" stroke-linejoin="round"/>
<path d="M15.7317 18.0638H13.6913C13.0203 18.058 12.3655 17.857 11.8067 17.4855C11.2479 17.114 10.8093 16.588 10.5442 15.9715L8.9707 12.3835C9.05015 12.269 9.15612 12.1753 9.27956 12.1106C9.40301 12.0459 9.54027 12.0119 9.67966 12.0117H23.513C23.6524 12.0119 23.7896 12.0459 23.9131 12.1106C24.0365 12.1753 24.1425 12.269 24.222 12.3835L22.6484 15.9715C22.3834 16.588 21.9447 17.114 21.3859 17.4855C20.8271 17.857 20.1723 18.058 19.5013 18.0638H17.4609" stroke="#F28F5D" stroke-width="1.5" stroke-linecap="round" stroke-linejoin="round"/>
<path d="M17.4606 17.1992H15.7314V18.9284H17.4606V17.1992Z" stroke="#D77644" stroke-width="1.5" stroke-linecap="round" stroke-linejoin="round"/>
</svg>
