<svg width="33" height="33" viewBox="0 0 33 33" fill="none" xmlns="http://www.w3.org/2000/svg">
<rect opacity="0.15" x="0.416016" y="0.279297" width="32" height="32" rx="7" fill="#2F96F4"/>
<path d="M16.459 13.7871C16.459 13.7871 16.4054 13.7871 16.3711 13.7871" stroke="#BA69C8" stroke-width="1.5" stroke-linecap="round" stroke-linejoin="round"/>
<path d="M16.415 19.2746V16.6543" stroke="#BA69C8" stroke-width="1.5" stroke-linecap="round" stroke-linejoin="round"/>
<path d="M8.66151 17.5723C8.86515 18.7936 9.35441 19.9495 10.0894 20.9459C10.8245 21.9423 11.7844 22.751 12.8912 23.3061C13.998 23.8612 15.2202 24.147 16.4583 24.1402C17.6965 24.1334 18.9155 23.8343 20.0161 23.2671L22.9771 23.8785C23.1186 23.9074 23.265 23.9008 23.4033 23.8593C23.5416 23.8177 23.6675 23.7425 23.7696 23.6404C23.8717 23.5383 23.9469 23.4124 23.9885 23.2741C24.03 23.1358 24.0367 22.9893 24.0077 22.8479L23.4051 19.8782C23.9746 18.7716 24.2733 17.5456 24.2765 16.3011C24.2797 15.0566 23.9873 13.8291 23.4235 12.7196C22.8597 11.6101 22.0405 10.6503 21.0334 9.91922C20.0262 9.18814 18.8598 8.70664 17.6303 8.51433C16.4007 8.32203 15.143 8.42442 13.9607 8.81307C12.7784 9.20173 11.7053 9.86555 10.8296 10.7499C9.95399 11.6343 9.30083 12.7139 8.9239 13.9C8.54697 15.0861 8.45704 16.3447 8.66151 17.5723Z" stroke="#A55AB2" stroke-width="1.5" stroke-linecap="round" stroke-linejoin="round"/>
</svg>
