<svg width="33" height="33" viewBox="0 0 33 33" fill="none" xmlns="http://www.w3.org/2000/svg">
<rect x="0.962891" y="0.826172" width="32" height="32" rx="7" fill="#BA69C8"/>
<path d="M20.2901 16.8263V21.1535V16.8263ZM16.8283 21.1535V19.4226V21.1535ZM8.17383 19.4226L10.6231 16.9734L8.17383 19.4226ZM12.5011 12.499C11.9876 12.499 11.4856 12.6513 11.0586 12.9366C10.6317 13.2219 10.2989 13.6274 10.1024 14.1018C9.90585 14.5762 9.85444 15.0983 9.95462 15.6019C10.0548 16.1055 10.3021 16.5682 10.6652 16.9313C11.0283 17.2944 11.4909 17.5417 11.9946 17.6418C12.4982 17.742 13.0202 17.6906 13.4947 17.4941C13.9691 17.2976 14.3746 16.9648 14.6599 16.5378C14.9452 16.1109 15.0974 15.6089 15.0974 15.0954C15.0974 14.4068 14.8239 13.7464 14.337 13.2595C13.8501 12.7726 13.1897 12.499 12.5011 12.499Z" stroke="white" stroke-width="1.5" stroke-linecap="round" stroke-linejoin="round"/>
<path d="M12.5002 9.03711H22.8856C23.1152 9.03711 23.3353 9.12829 23.4976 9.29059C23.6599 9.4529 23.7511 9.67303 23.7511 9.90256V23.7498C23.7511 23.9793 23.6599 24.1994 23.4976 24.3618C23.3353 24.5241 23.1152 24.6152 22.8856 24.6152H12.5002C12.2707 24.6152 12.0506 24.5241 11.8883 24.3618C11.7259 24.1994 11.6348 23.9793 11.6348 23.7498V21.1534" stroke="white" stroke-width="1.5" stroke-linecap="round" stroke-linejoin="round"/>
</svg>
