<svg width="33" height="33" viewBox="0 0 33 33" fill="none" xmlns="http://www.w3.org/2000/svg">
<rect opacity="0.15" x="0.107422" y="0.517578" width="32" height="32" rx="7" fill="#2F96F4"/>
<path d="M23.4164 11.6179L21.0082 9.20964C20.9288 9.1296 20.8343 9.06607 20.7302 9.02271C20.6262 8.97935 20.5145 8.95703 20.4018 8.95703C20.2891 8.95703 20.1775 8.97935 20.0734 9.02271C19.9693 9.06607 19.8749 9.1296 19.7955 9.20964L17.3359 11.6692L20.9569 15.2902L23.4164 12.8306C23.4965 12.7512 23.56 12.6568 23.6034 12.5527C23.6467 12.4486 23.6691 12.337 23.6691 12.2243C23.6691 12.1115 23.6467 11.9999 23.6034 11.8958C23.56 11.7918 23.4965 11.6973 23.4164 11.6179Z" stroke="#2E71C1" stroke-width="1.5" stroke-linecap="round" stroke-linejoin="round"/>
<path d="M14.9263 14.0781L18.5473 17.6991L12.1679 24.0785H8.54688V20.4575L14.9263 14.0781Z" stroke="#2F96F4" stroke-width="1.5" stroke-linecap="round" stroke-linejoin="round"/>
</svg>
