<svg width="33" height="33" viewBox="0 0 33 33" fill="none" xmlns="http://www.w3.org/2000/svg">
<rect x="0.666016" y="0.960938" width="32" height="32" rx="7" fill="#F28F5D"/>
<path d="M20.1243 10.0443C20.1243 9.81497 20.0333 9.59506 19.8711 9.43292C19.709 9.27078 19.4891 9.17969 19.2598 9.17969H14.0723C13.843 9.17969 13.6231 9.27078 13.4609 9.43292C13.2988 9.59506 13.2077 9.81497 13.2077 10.0443V12.638H20.1243V10.0443ZM24.4473 23.8776V13.5026C24.4473 13.2733 24.3562 13.0534 24.194 12.8913C24.0319 12.7291 23.812 12.638 23.5827 12.638H9.74935C9.52005 12.638 9.30014 12.7291 9.138 12.8913C8.97586 13.0534 8.88477 13.2733 8.88477 13.5026V23.8776C8.88477 24.1069 8.97586 24.3268 9.138 24.489C9.30014 24.6511 9.52005 24.7422 9.74935 24.7422H23.5827C23.812 24.7422 24.0319 24.6511 24.194 24.489C24.3562 24.3268 24.4473 24.1069 24.4473 23.8776Z" stroke="white" stroke-width="1.5" stroke-linecap="round" stroke-linejoin="round"/>
<path d="M15.8021 18.6908H13.7616C13.0906 18.6849 12.4358 18.484 11.877 18.1125C11.3182 17.741 10.8796 17.2149 10.6146 16.5985L9.04102 13.0104C9.12047 12.8959 9.22643 12.8023 9.34988 12.7376C9.47332 12.6728 9.61059 12.6389 9.74997 12.6387H23.5833C23.7227 12.6389 23.86 12.6728 23.9834 12.7376C24.1069 12.8023 24.2128 12.8959 24.2923 13.0104L22.7187 16.5985C22.4537 17.2149 22.015 17.741 21.4562 18.1125C20.8974 18.484 20.2426 18.6849 19.5716 18.6908H17.5312" stroke="white" stroke-width="1.5" stroke-linecap="round" stroke-linejoin="round"/>
<path d="M17.5309 17.8262H15.8018V19.5553H17.5309V17.8262Z" stroke="white" stroke-width="1.5" stroke-linecap="round" stroke-linejoin="round"/>
</svg>
