<svg width="33" height="33" viewBox="0 0 33 33" fill="none" xmlns="http://www.w3.org/2000/svg">
<rect x="0.666016" y="0.144531" width="32" height="32" rx="7" fill="#2F96F4"/>
<path d="M13.0676 9.21968L13.0676 11.1241L14.7989 12.8554L14.7989 15.2792L13.0676 15.2792L13.0676 20.473L19.9927 20.473L19.9927 22.2043C19.9927 22.6634 20.1751 23.1038 20.4998 23.4285C20.8245 23.7531 21.2648 23.9355 21.724 23.9355C22.1832 23.9355 22.6235 23.7531 22.9482 23.4285C23.2729 23.1038 23.4553 22.6634 23.4553 22.2043L23.4553 9.21968C23.4553 8.9901 23.3641 8.76992 23.2018 8.60758C23.0394 8.44524 22.8192 8.35404 22.5897 8.35404L13.9333 8.35404C13.7037 8.35404 13.4835 8.44524 13.3212 8.60758C13.1588 8.76992 13.0676 8.9901 13.0676 9.21968ZM10.4707 20.473L19.9927 20.473L19.9927 22.2043C19.9927 22.6634 20.1751 23.1038 20.4998 23.4285C20.8245 23.7531 21.2648 23.9355 21.724 23.9355L12.202 23.9355C11.7428 23.9355 11.3025 23.7531 10.9778 23.4285C10.6531 23.1038 10.4707 22.6634 10.4707 22.2043L10.4707 20.473Z" stroke="white" stroke-width="1.5" stroke-linecap="round" stroke-linejoin="round"/>
<path d="M9.3363 8.60522L8.1244 9.81711C7.96579 9.97893 7.87695 10.1965 7.87695 10.4231C7.87695 10.6496 7.96579 10.8672 8.1244 11.029L12.3747 15.2793L14.7985 15.2793L14.7985 12.8555L10.5482 8.60522C10.3864 8.44661 10.1688 8.35777 9.94224 8.35777C9.71566 8.35777 9.49811 8.44661 9.3363 8.60522V8.60522Z" stroke="white" stroke-width="1.5" stroke-linecap="round" stroke-linejoin="round"/>
</svg>
