<svg width="33" height="33" viewBox="0 0 33 33" fill="none" xmlns="http://www.w3.org/2000/svg">
<rect x="0.525391" y="0.517578" width="32" height="32" rx="7" fill="#2F96F4"/>
<path d="M23.8344 11.6179L21.4261 9.20964C21.3467 9.1296 21.2523 9.06607 21.1482 9.02271C21.0441 8.97935 20.9325 8.95703 20.8198 8.95703C20.707 8.95703 20.5954 8.97935 20.4914 9.02271C20.3873 9.06607 20.2928 9.1296 20.2134 9.20964L17.7539 11.6692L21.3749 15.2902L23.8344 12.8306C23.9145 12.7512 23.978 12.6568 24.0213 12.5527C24.0647 12.4486 24.087 12.337 24.087 12.2243C24.087 12.1115 24.0647 11.9999 24.0213 11.8958C23.978 11.7918 23.9145 11.6973 23.8344 11.6179Z" stroke="white" stroke-width="1.5" stroke-linecap="round" stroke-linejoin="round"/>
<path d="M15.3443 14.0771L18.9652 17.6981L12.5858 24.0775H8.96484V20.4566L15.3443 14.0771Z" stroke="white" stroke-width="1.5" stroke-linecap="round" stroke-linejoin="round"/>
</svg>
