<svg width="33" height="33" viewBox="0 0 33 33" fill="none" xmlns="http://www.w3.org/2000/svg">
<rect x="0.525391" y="0.630859" width="32" height="32" rx="7" fill="#F28F5D"/>
<path d="M16.5255 17.4648V24.1315M19.0774 24.1315H13.9736" stroke="white" stroke-width="1.5" stroke-linecap="round" stroke-linejoin="round"/>
<path d="M19.2587 15.5068L12.0421 19.7818C11.8592 19.8906 11.6416 19.9253 11.434 19.8788C11.2264 19.8323 11.0444 19.7082 10.9254 19.5318L9.93372 18.0735C9.81655 17.8968 9.77115 17.682 9.80676 17.473C9.84237 17.264 9.95631 17.0764 10.1254 16.9485L16.7921 11.8485L19.2587 15.5068ZM22.6837 10.5985C22.1895 9.86617 21.4247 9.36003 20.5575 9.19127C19.6903 9.02251 18.7915 9.20495 18.0587 9.69848C17.3702 10.1682 16.8826 10.8787 16.6921 11.6901L19.4254 15.7485C20.2484 15.877 21.0898 15.6927 21.7837 15.2318C22.1475 14.987 22.4594 14.6729 22.7015 14.3074C22.9437 13.9419 23.1114 13.5323 23.195 13.1019C23.2786 12.6715 23.2765 12.2288 23.1887 11.7992C23.101 11.3697 22.9294 10.9616 22.6837 10.5985V10.5985Z" stroke="white" stroke-width="1.5" stroke-linecap="round" stroke-linejoin="round"/>
<path d="M15.4941 9.8877L20.5254 17.4648" stroke="white" stroke-width="1.5" stroke-linecap="round" stroke-linejoin="round"/>
</svg>
