<svg width="33" height="33" viewBox="0 0 33 33" fill="none" xmlns="http://www.w3.org/2000/svg">
<rect x="0.525391" y="0.880859" width="32" height="32" rx="7" fill="#2F96F4"/>
<path d="M16.2444 20.3978H13.8877M13.8877 16.8815H17.2131M13.8877 13.3652H19.1621" stroke="white" stroke-width="1.5" stroke-linecap="round" stroke-linejoin="round"/>
<path d="M22.679 10.7279V23.9139C22.679 24.147 22.5864 24.3706 22.4216 24.5355C22.2567 24.7004 22.0331 24.793 21.8 24.793H11.2511C11.018 24.793 10.7944 24.7004 10.6295 24.5355C10.4647 24.3706 10.3721 24.147 10.3721 23.9139V9.8488C10.3721 9.61565 10.4647 9.39206 10.6295 9.2272C10.7944 9.06234 11.018 8.96973 11.2511 8.96973H20.9209L22.679 10.7279Z" stroke="white" stroke-width="1.5" stroke-linecap="round" stroke-linejoin="round"/>
</svg>
