<svg width="33" height="33" viewBox="0 0 33 33" fill="none" xmlns="http://www.w3.org/2000/svg">
<rect opacity="0.15" x="0.916016" y="0.826172" width="32" height="32" rx="7" fill="#2F96F4"/>
<path d="M20.2433 16.8263V21.1535V16.8263ZM16.7815 21.1535V19.4226V21.1535ZM8.12695 19.4226L10.5762 16.9734L8.12695 19.4226ZM12.4542 12.499C11.9407 12.499 11.4387 12.6513 11.0118 12.9366C10.5848 13.2219 10.252 13.6274 10.0555 14.1018C9.85898 14.5762 9.80756 15.0983 9.90774 15.6019C10.0079 16.1055 10.2552 16.5682 10.6183 16.9313C10.9814 17.2944 11.444 17.5417 11.9477 17.6418C12.4513 17.742 12.9734 17.6906 13.4478 17.4941C13.9222 17.2976 14.3277 16.9648 14.613 16.5378C14.8983 16.1109 15.0506 15.6089 15.0506 15.0954C15.0506 14.4068 14.777 13.7464 14.2901 13.2595C13.8032 12.7726 13.1428 12.499 12.4542 12.499Z" stroke="#BA69C8" stroke-width="1.5" stroke-linecap="round" stroke-linejoin="round"/>
<path d="M12.4533 9.03711H22.8388C23.0683 9.03711 23.2884 9.12829 23.4507 9.29059C23.613 9.4529 23.7042 9.67303 23.7042 9.90256V23.7498C23.7042 23.9793 23.613 24.1994 23.4507 24.3618C23.2884 24.5241 23.0683 24.6152 22.8388 24.6152H12.4533C12.2238 24.6152 12.0037 24.5241 11.8414 24.3618C11.6791 24.1994 11.5879 23.9793 11.5879 23.7498V21.1534" stroke="#974CA3" stroke-width="1.5" stroke-linecap="round" stroke-linejoin="round"/>
</svg>
