<svg width="33" height="33" viewBox="0 0 33 33" fill="none" xmlns="http://www.w3.org/2000/svg">
<rect x="0.525391" y="0.0742188" width="32" height="32" rx="7" fill="#41BFCB"/>
<path d="M20.9421 13.3242L22.583 10.9776L18.0821 7.82422L14.223 13.3242H20.9421ZM13.4988 7.82422L9.63965 13.3242H14.223L16.5696 9.97839L13.4988 7.82422Z" stroke="white" stroke-width="1.5" stroke-linecap="round" stroke-linejoin="round"/>
<path d="M23.4993 13.3242H8.83268C8.32642 13.3242 7.91602 13.7346 7.91602 14.2409V23.4076C7.91602 23.9138 8.32642 24.3242 8.83268 24.3242H23.4993C24.0056 24.3242 24.416 23.9138 24.416 23.4076V14.2409C24.416 13.7346 24.0056 13.3242 23.4993 13.3242Z" stroke="white" stroke-width="1.5" stroke-linecap="round" stroke-linejoin="round"/>
<mask id="path-4-inside-1_458_1758" fill="white">
<rect x="18.7598" y="16.1445" width="6.375" height="5.35938" rx="1"/>
</mask>
<rect x="18.7598" y="16.1445" width="6.375" height="5.35938" rx="1" stroke="white" stroke-width="3" mask="url(#path-4-inside-1_458_1758)"/>
</svg>
