<svg width="33" height="33" viewBox="0 0 33 33" fill="none" xmlns="http://www.w3.org/2000/svg">
<rect opacity="0.15" x="0.107422" y="0.630859" width="32" height="32" rx="7" fill="#2F96F4"/>
<path d="M16.1075 17.4648V24.1315M18.6594 24.1315H13.5557" stroke="#F28F5D" stroke-width="1.5" stroke-linecap="round" stroke-linejoin="round"/>
<path d="M18.8407 15.5068L11.6241 19.7818C11.4412 19.8906 11.2237 19.9253 11.0161 19.8788C10.8084 19.8323 10.6265 19.7082 10.5074 19.5318L9.51575 18.0735C9.39858 17.8968 9.35318 17.682 9.38879 17.473C9.4244 17.264 9.53835 17.0764 9.70742 16.9485L16.3741 11.8485L18.8407 15.5068ZM22.2657 10.5985C21.7715 9.86617 21.0067 9.36003 20.1395 9.19127C19.2723 9.02251 18.3735 9.20495 17.6407 9.69848C16.9522 10.1682 16.4646 10.8787 16.2741 11.6901L19.0074 15.7485C19.8305 15.877 20.6718 15.6927 21.3657 15.2318C21.7295 14.987 22.0414 14.6729 22.2836 14.3074C22.5257 13.9419 22.6934 13.5323 22.777 13.1019C22.8606 12.6715 22.8585 12.2288 22.7708 11.7992C22.683 11.3697 22.5114 10.9616 22.2657 10.5985V10.5985Z" stroke="#F28F5D" stroke-width="1.5" stroke-linecap="round" stroke-linejoin="round"/>
<path d="M15.0762 9.8877L20.1074 17.4648" stroke="#F28F5D" stroke-width="1.5" stroke-linecap="round" stroke-linejoin="round"/>
</svg>
