<svg width="33" height="33" viewBox="0 0 33 33" fill="none" xmlns="http://www.w3.org/2000/svg">
<rect opacity="0.15" x="0.107422" y="0.880859" width="32" height="32" rx="7" fill="#2F96F4"/>
<path d="M15.8264 20.3978H13.4697M13.4697 16.8815H16.7952M13.4697 13.3652H18.7441" stroke="#2F96F4" stroke-width="1.5" stroke-linecap="round" stroke-linejoin="round"/>
<path d="M22.2611 10.7279V23.9139C22.2611 24.147 22.1685 24.3706 22.0036 24.5355C21.8387 24.7004 21.6151 24.793 21.382 24.793H10.8332C10.6 24.793 10.3764 24.7004 10.2116 24.5355C10.0467 24.3706 9.9541 24.147 9.9541 23.9139V9.8488C9.9541 9.61565 10.0467 9.39206 10.2116 9.2272C10.3764 9.06234 10.6 8.96973 10.8332 8.96973H20.5029L22.2611 10.7279Z" stroke="#2E71C1" stroke-width="1.5" stroke-linecap="round" stroke-linejoin="round"/>
</svg>
