<svg width="33" height="33" viewBox="0 0 33 33" fill="none" xmlns="http://www.w3.org/2000/svg">
<rect opacity="0.15" x="0.416016" y="0.144531" width="32" height="32" rx="7" fill="#2F96F4"/>
<path d="M12.8176 9.21968L12.8176 11.1241L14.5489 12.8554L14.5489 15.2792L12.8176 15.2792L12.8176 20.473L19.7427 20.473L19.7427 22.2043C19.7427 22.6634 19.9251 23.1038 20.2498 23.4285C20.5745 23.7531 21.0148 23.9355 21.474 23.9355C21.9332 23.9355 22.3735 23.7531 22.6982 23.4285C23.0229 23.1038 23.2053 22.6634 23.2053 22.2043L23.2053 9.21968C23.2053 8.9901 23.1141 8.76992 22.9518 8.60758C22.7894 8.44524 22.5692 8.35404 22.3397 8.35404L13.6833 8.35404C13.4537 8.35404 13.2335 8.44524 13.0712 8.60758C12.9088 8.76992 12.8176 8.9901 12.8176 9.21968ZM10.2207 20.473L19.7427 20.473L19.7427 22.2043C19.7427 22.6634 19.9251 23.1038 20.2498 23.4285C20.5745 23.7531 21.0148 23.9355 21.474 23.9355L11.952 23.9355C11.4928 23.9355 11.0525 23.7531 10.7278 23.4285C10.4031 23.1038 10.2207 22.6634 10.2207 22.2043L10.2207 20.473Z" stroke="#2E71C1" stroke-width="1.5" stroke-linecap="round" stroke-linejoin="round"/>
<path d="M9.0863 8.60522L7.8744 9.81711C7.71579 9.97893 7.62695 10.1965 7.62695 10.4231C7.62695 10.6496 7.71579 10.8672 7.8744 11.029L12.1247 15.2793L14.5485 15.2793L14.5485 12.8555L10.2982 8.60522C10.1364 8.44661 9.91883 8.35777 9.69224 8.35777C9.46566 8.35777 9.24811 8.44661 9.0863 8.60522V8.60522Z" stroke="#2F96F4" stroke-width="1.5" stroke-linecap="round" stroke-linejoin="round"/>
</svg>
