<svg width="33" height="33" viewBox="0 0 33 33" fill="none" xmlns="http://www.w3.org/2000/svg">
<rect x="0.666016" y="0.279297" width="32" height="32" rx="7" fill="#BA69C8"/>
<path d="M16.709 13.7871C16.709 13.7871 16.6554 13.7871 16.6211 13.7871" stroke="white" stroke-width="1.5" stroke-linecap="round" stroke-linejoin="round"/>
<path d="M16.665 19.2746V16.6543" stroke="white" stroke-width="1.5" stroke-linecap="round" stroke-linejoin="round"/>
<path d="M8.91151 17.5723C9.11515 18.7936 9.60441 19.9495 10.3394 20.9459C11.0745 21.9423 12.0344 22.751 13.1412 23.3061C14.248 23.8612 15.4702 24.147 16.7083 24.1402C17.9465 24.1334 19.1655 23.8343 20.2661 23.2671L23.2271 23.8785C23.3686 23.9074 23.515 23.9008 23.6533 23.8593C23.7916 23.8177 23.9175 23.7425 24.0196 23.6404C24.1217 23.5383 24.1969 23.4124 24.2385 23.2741C24.28 23.1358 24.2867 22.9893 24.2577 22.8479L23.6551 19.8782C24.2246 18.7716 24.5233 17.5456 24.5265 16.3011C24.5297 15.0566 24.2373 13.8291 23.6735 12.7196C23.1097 11.6101 22.2905 10.6503 21.2834 9.91922C20.2762 9.18814 19.1098 8.70664 17.8803 8.51433C16.6507 8.32203 15.393 8.42442 14.2107 8.81307C13.0284 9.20173 11.9553 9.86555 11.0796 10.7499C10.204 11.6343 9.55083 12.7139 9.1739 13.9C8.79697 15.0861 8.70704 16.3447 8.91151 17.5723Z" stroke="white" stroke-width="1.5" stroke-linecap="round" stroke-linejoin="round"/>
</svg>
