<?xml version="1.0" encoding="UTF-8"?>
<svg width="25px" height="25px" viewBox="0 0 25 25" version="1.1" xmlns="http://www.w3.org/2000/svg" xmlns:xlink="http://www.w3.org/1999/xlink">
    <!-- Generator: Sketch 64 (93537) - https://sketch.com -->
    <title>social-icon-linkedin</title>
    <desc>Created with Sketch.</desc>
    <g id="Main" stroke="none" stroke-width="1" fill="none" fill-rule="evenodd">
        <g id="Developer-page---effects" transform="translate(-1079.000000, -3487.000000)">
            <g id="Group-32" transform="translate(1008.000000, 3487.000000)">
                <g id="social-icon-linkedin" transform="translate(71.000000, 0.000000)">
                    <circle id="Oval-4-Copy-2" fill="#D7E7F9" cx="12.5" cy="12.5" r="12.5"></circle>
                    <g id="Group-58" transform="translate(7.000000, 7.000000)" fill="#5EA5EE">
                        <path d="M0.169230769,3.59615385 L2.41153846,3.59615385 L2.41153846,10.8730773 L0.169230769,10.8730773 L0.169230769,3.59615385 Z M1.31153846,3.30675658e-14 C2.03076923,3.30675658e-14 2.62307692,0.592307692 2.62307692,1.31153846 C2.62307692,2.03076923 2.03076923,2.62307692 1.31153846,2.62307692 C0.592307692,2.62307692 -6.1625918e-13,2.03076923 -6.1625918e-13,1.31153846 C-6.1625918e-13,0.592307692 0.592307692,3.30675658e-14 1.31153846,3.30675658e-14 L1.31153846,3.30675658e-14 Z" id="Fill-9"></path>
                        <path d="M3.85,3.59615385 L6.00769231,3.59615385 L6.00769231,4.56923077 L6.05,4.56923077 C6.34615385,3.97692308 7.10769231,3.38461538 8.20769231,3.38461538 C10.4923077,3.38461538 10.9153846,4.90769231 10.9153846,6.85384615 L10.9153846,10.8307692 L8.67307692,10.8307692 L8.67307692,7.27692308 C8.67307692,6.43076923 8.67307692,5.33076923 7.48846154,5.33076923 C6.30384615,5.33076923 6.13461538,6.26153846 6.13461538,7.19230769 L6.13461538,10.7884615 L3.89230769,10.7884615 L3.89230769,3.59615385 L3.85,3.59615385 Z" id="Fill-10"></path>
                    </g>
                </g>
            </g>
        </g>
    </g>
</svg>