<?xml version="1.0" encoding="UTF-8"?>
<svg width="117px" height="25px" viewBox="0 0 117 25" version="1.1" xmlns="http://www.w3.org/2000/svg" xmlns:xlink="http://www.w3.org/1999/xlink">
    <!-- Generator: Sketch 64 (93537) - https://sketch.com -->
    <title>Group 31</title>
    <desc>Created with Sketch.</desc>
    <g id="Main" stroke="none" stroke-width="1" fill="none" fill-rule="evenodd">
        <g id="Developer-page---effects" transform="translate(-99.000000, -3458.000000)" fill="#DAE0E4">
            <g id="Group-31" transform="translate(99.000000, 3458.000000)">
                <path d="M89.8658302,5.35629494 L79.6051443,5.35629494 C79.4956274,5.35629494 79.407208,5.44492679 79.407208,5.55412124 L79.407208,7.54538364 C79.407208,7.65434173 79.4956274,7.74297359 79.6051443,7.74297359 L86.5134767,7.74297359 L79.2140126,16.5539256 C79.1848556,16.589142 79.1687362,16.6338125 79.1687362,16.6796647 L79.1687362,18.3419256 C79.1687362,18.4511201 79.2576297,18.5395156 79.3669095,18.5395156 L89.8658302,18.5395156 C89.9753471,18.5395156 90.0640036,18.4511201 90.0640036,18.3419256 L90.0640036,16.3508996 C90.0640036,16.2417051 89.9753471,16.1533096 89.8658302,16.1533096 L82.7195001,16.1533096 L90.0187271,7.34212124 C90.0481212,7.30690485 90.0640036,7.2622344 90.0640036,7.21638218 L90.0640036,5.55412124 C90.0640036,5.44492679 89.9753471,5.35629494 89.8658302,5.35629494 L89.8658302,5.35629494 Z" id="Fill-1"></path>
                <path d="M102.327117,16.1349924 L95.1777057,16.1349924 L95.1777057,13.0957469 L101.411158,13.0957469 C101.520912,13.0957469 101.609332,13.0073514 101.609332,12.8979206 L101.609332,10.8884591 C101.609332,10.779501 101.520912,10.6908692 101.411158,10.6908692 L95.1777057,10.6908692 L95.1777057,7.76105449 L102.235616,7.76105449 C102.345133,7.76105449 102.433553,7.67265898 102.433553,7.56346453 L102.433553,5.55400307 C102.433553,5.44504497 102.345133,5.35641311 102.235616,5.35641311 L92.7261401,5.35641311 C92.6166233,5.35641311 92.5277297,5.44504497 92.5277297,5.55400307 L92.5277297,18.3420438 C92.5277297,18.4512382 92.6166233,18.5396337 92.7261401,18.5396337 L102.327117,18.5396337 C102.436634,18.5396337 102.525291,18.4512382 102.525291,18.3420438 L102.525291,16.3325823 C102.525291,16.2233879 102.436634,16.1349924 102.327117,16.1349924" id="Fill-3"></path>
                <path d="M116.653107,5.35629494 L114.435746,5.35629494 C114.326466,5.35629494 114.238047,5.44492679 114.238047,5.55412124 L114.238047,13.8186283 L107.72132,5.43287286 C107.683866,5.38465713 107.626263,5.35629494 107.565105,5.35629494 L105.476225,5.35629494 C105.366471,5.35629494 105.278051,5.44492679 105.278051,5.55412124 L105.278051,18.3419256 C105.278051,18.4511201 105.366471,18.5395156 105.476225,18.5395156 L107.693111,18.5395156 C107.802628,18.5395156 107.891285,18.4511201 107.891285,18.3419256 L107.891285,9.82168608 L114.609266,18.463174 C114.64672,18.5113897 114.704323,18.5395156 114.765482,18.5395156 L116.653107,18.5395156 C116.762387,18.5395156 116.851043,18.4511201 116.851043,18.3419256 L116.851043,5.55412124 C116.851043,5.44492679 116.762387,5.35629494 116.653107,5.35629494" id="Fill-5"></path>
                <path d="M2.24794005,21.8284902 L73.3473703,21.8284902 L73.3473703,2.22312333 L2.24794005,2.22312333 L2.24794005,21.8284902 Z M75.2757677,0 L0.319779724,0 C0.143414924,0 0,0.142283675 0,0.316947521 L0,23.7344296 C0,23.9090935 0.143414924,24.0513771 0.319779724,24.0513771 L75.2757677,24.0513771 C75.4518955,24.0513771 75.5950733,23.9090935 75.5950733,23.7344296 L75.5950733,0.316947521 C75.5950733,0.142283675 75.4518955,0 75.2757677,0 L75.2757677,0 Z" id="Fill-8"></path>
                <path d="M30.1946493,5.43407826 L20.6484304,5.43407826 C20.5391506,5.43407826 20.4502571,5.52271011 20.4502571,5.63166821 L20.4502571,18.4199453 C20.4502571,18.5289034 20.5391506,18.6172989 20.6484304,18.6172989 L22.9020596,18.6172989 C23.0113394,18.6172989 23.100233,18.5289034 23.100233,18.4199453 L23.100233,13.4107091 L29.3699542,13.4107091 C29.479234,13.4107091 29.5681276,13.3223135 29.5681276,13.2133555 L29.5681276,11.1672595 C29.5681276,11.058065 29.479234,10.9696695 29.3699542,10.9696695 L23.100233,10.9696695 L23.100233,7.87535413 L30.1946493,7.87535413 C30.3039291,7.87535413 30.3928226,7.78695863 30.3928226,7.67776418 L30.3928226,5.63166821 C30.3928226,5.52271011 30.3039291,5.43407826 30.1946493,5.43407826" id="Fill-10"></path>
                <path d="M42.8471643,5.43407826 L33.3009454,5.43407826 C33.1916656,5.43407826 33.1027721,5.52271011 33.1027721,5.63166821 L33.1027721,18.4199453 C33.1027721,18.5289034 33.1916656,18.6172989 33.3009454,18.6172989 L35.5545747,18.6172989 C35.6643286,18.6172989 35.752748,18.5289034 35.752748,18.4199453 L35.752748,13.4107091 L42.0224692,13.4107091 C42.131749,13.4107091 42.2206426,13.3223135 42.2206426,13.2133555 L42.2206426,11.1672595 C42.2206426,11.058065 42.131749,10.9696695 42.0224692,10.9696695 L35.752748,10.9696695 L35.752748,7.87535413 L42.8471643,7.87535413 C42.9564441,7.87535413 43.0453377,7.78695863 43.0453377,7.67776418 L43.0453377,5.63166821 C43.0453377,5.52271011 42.9564441,5.43407826 42.8471643,5.43407826" id="Fill-11"></path>
                <path d="M55.6325455,16.2127757 L48.4831338,16.2127757 L48.4831338,13.1732939 L54.7163494,13.1732939 C54.8261033,13.1732939 54.9145227,13.0848983 54.9145227,12.9759403 L54.9145227,10.9662424 C54.9145227,10.8572843 54.8261033,10.7688888 54.7163494,10.7688888 L48.4831338,10.7688888 L48.4831338,7.83883781 L55.5408074,7.83883781 C55.6505613,7.83883781 55.7389807,7.75020595 55.7389807,7.64124785 L55.7389807,5.63155003 C55.7389807,5.52282829 55.6505613,5.43419643 55.5408074,5.43419643 L46.0315682,5.43419643 C45.9218143,5.43419643 45.8333949,5.52282829 45.8333949,5.63155003 L45.8333949,18.4200635 C45.8333949,18.5290215 45.9218143,18.6174171 46.0315682,18.6174171 L55.6325455,18.6174171 C55.7422994,18.6174171 55.8307189,18.5290215 55.8307189,18.4200635 L55.8307189,16.4103656 C55.8307189,16.3011712 55.7422994,16.2127757 55.6325455,16.2127757" id="Fill-12"></path>
                <path d="M61.1553002,7.87537777 L64.2364691,7.87537777 C65.3579501,7.87537777 66.6953832,8.21217882 66.6953832,9.81535186 C66.6953832,11.0231086 65.760223,11.773525 64.255196,11.773525 L61.1553002,11.773525 L61.1553002,7.87537777 Z M66.445533,13.6882095 C68.3160903,13.074877 69.3818647,11.6302959 69.3818647,9.68724928 C69.3818647,7.06398266 67.480728,5.43410189 64.4197083,5.43410189 L58.7032606,5.43410189 C58.5942178,5.43410189 58.5053243,5.52273375 58.5053243,5.63169184 L58.5053243,18.4199689 C58.5053243,18.528927 58.5942178,18.6173225 58.7032606,18.6173225 L60.9571268,18.6173225 C61.0664066,18.6173225 61.1553002,18.528927 61.1553002,18.4199689 L61.1553002,14.159731 L63.6758471,14.159731 L66.7686314,18.5338904 C66.8056112,18.5861241 66.8660588,18.6173225 66.9298251,18.6173225 L69.5871495,18.6173225 C69.5883348,18.6175589 69.5897571,18.6173225 69.5909423,18.6173225 C69.7004592,18.6173225 69.7891157,18.528927 69.7891157,18.4199689 C69.7891157,18.3641899 69.7658848,18.3140834 69.7291422,18.2781579 L66.445533,13.6882095 Z" id="Fill-13"></path>
                <path d="M11.913134,16.3309515 C9.63248117,16.3309515 7.91245028,14.4524288 7.91245028,11.9612827 C7.91245028,9.49093562 9.61707296,7.62824851 11.8780507,7.62824851 C14.1587036,7.62824851 15.8787345,9.50677118 15.8787345,11.9979173 C15.8787345,14.468028 14.1738748,16.3309515 11.913134,16.3309515 M11.9275941,5.21509848 C8.1675155,5.21509848 5.33216689,8.15082194 5.33216689,12.0440058 C5.33216689,15.9163907 8.15281843,18.8367514 11.8922737,18.8367514 C15.6525893,18.8367514 18.4879379,15.9007915 18.4879379,12.0073713 C18.4879379,8.13522274 15.6675234,5.21509848 11.9275941,5.21509848" id="Fill-14"></path>
            </g>
        </g>
    </g>
</svg>