<?xml version="1.0" encoding="UTF-8"?>
<svg width="25px" height="25px" viewBox="0 0 25 25" version="1.1" xmlns="http://www.w3.org/2000/svg" xmlns:xlink="http://www.w3.org/1999/xlink">
    <!-- Generator: Sketch 64 (93537) - https://sketch.com -->
    <title>social-icon-twitter</title>
    <desc>Created with Sketch.</desc>
    <g id="Main" stroke="none" stroke-width="1" fill="none" fill-rule="evenodd">
        <g id="Developer-page---effects" transform="translate(-1008.000000, -3487.000000)">
            <g id="Group-32" transform="translate(1008.000000, 3487.000000)">
                <g id="social-icon-twitter">
                    <circle id="Oval-4" fill="#D7E7F9" cx="12.5" cy="12.5" r="12.5"></circle>
                    <path d="M19,9.06477654 C18.5568569,9.24696494 18.0829991,9.36842117 17.5872023,9.42105166 C18.0961626,9.1416999 18.4866563,8.69635499 18.6709314,8.16599315 C18.1926902,8.42510085 17.6661786,8.61538282 17.1045733,8.71659905 C16.657038,8.27530295 16.016452,8 15.3100575,8 C13.9499092,8 12.8486288,9.01619486 12.8486288,10.2712534 C12.8486288,10.449393 12.8705679,10.6234837 12.9144417,10.7894728 C10.865448,10.6923095 9.05338228,9.78947321 7.83802575,8.41700323 C7.627422,8.75303835 7.50457017,9.1416999 7.50457017,9.55870313 C7.50457017,10.3481767 7.93893981,11.040487 8.6014627,11.4493926 C8.19780602,11.4372461 7.82047536,11.336034 7.48702023,11.165992 C7.48702023,11.1740896 7.48702023,11.1862361 7.48702023,11.1943337 C7.48702023,12.2955455 8.33382085,13.2105265 9.4614259,13.4210526 C9.2552104,13.4736843 9.0358319,13.5020243 8.81206601,13.5020243 C8.65411342,13.5020243 8.50054864,13.4858303 8.34698342,13.4615386 C8.6585008,14.3643729 9.57111515,15.020243 10.6460699,15.0404858 C9.80365623,15.6477735 8.74186491,16.0121458 7.58793429,16.0121458 C7.39049363,16.0121458 7.19305302,16 7,15.9797573 C8.08811721,16.6234818 9.38245004,17 10.7733091,17 C15.3012819,17 17.7758696,13.5384612 17.7758696,10.5384627 C17.7758696,10.4412953 17.7714818,10.3400791 17.767094,10.2429157 C18.2541152,9.91902706 18.6709314,9.51821907 19,9.06477654 Z" id="Fill-1" fill="#5EA5EE"></path>
                </g>
            </g>
        </g>
    </g>
</svg>