<svg width="113" height="75" viewBox="0 0 113 75" fill="none" xmlns="http://www.w3.org/2000/svg">
<g filter="url(#filter0_d)">
<path d="M4.02759 6.55371C4.02759 5.44914 4.92302 4.55371 6.02759 4.55371H85.1104C93.3946 4.55371 100.11 11.2694 100.11 19.5537V47.1587C100.11 55.443 93.3946 62.1587 85.1104 62.1587H19.0276C10.7433 62.1587 4.02759 55.443 4.02759 47.1587V6.55371Z" fill="#2F96F4"/>
<path d="M85.1104 2.55371H6.02759C3.81845 2.55371 2.02759 4.34457 2.02759 6.55371V47.1587C2.02759 56.5475 9.63875 64.1587 19.0276 64.1587H85.1104C94.4992 64.1587 102.11 56.5475 102.11 47.1587V19.5537C102.11 10.1649 94.4992 2.55371 85.1104 2.55371Z" stroke="#2F96F4" stroke-opacity="0.2" stroke-width="4"/>
</g>
<path d="M40.84 41H43.648V24.992H40.84V31.544H32.512V24.992H29.704V41H32.512V34.016H40.84V41ZM46.2558 35.192C46.2558 38.864 48.8478 41.288 52.3278 41.288C54.1758 41.288 55.8798 40.712 57.0318 39.608L55.8798 37.952C55.0638 38.768 53.7198 39.224 52.5918 39.224C50.4078 39.224 49.0878 37.784 48.8958 36.032H57.8478V35.432C57.8478 31.784 55.6158 29.12 52.1358 29.12C48.7038 29.12 46.2558 31.832 46.2558 35.192ZM52.1358 31.184C54.4158 31.184 55.3518 32.888 55.3998 34.256H48.8717C48.9918 32.84 49.9758 31.184 52.1358 31.184ZM60.2151 43.28L59.8311 45.536C60.1911 45.632 60.8871 45.704 61.2471 45.704C63.0471 45.68 64.4391 45.056 65.2311 43.088L70.8231 29.408H68.1111L64.7271 38.096L61.3431 29.408H58.6551L63.4071 41.144L62.8311 42.464C62.4951 43.232 61.9671 43.472 61.1751 43.472C60.8871 43.472 60.4791 43.4 60.2151 43.28ZM72.6214 36.104H74.8054L75.2374 24.992H72.1654L72.6214 36.104ZM72.0454 39.584C72.0454 40.472 72.7894 41.24 73.7014 41.24C74.6134 41.24 75.3814 40.472 75.3814 39.584C75.3814 38.672 74.6134 37.904 73.7014 37.904C72.7894 37.904 72.0454 38.672 72.0454 39.584Z" fill="white"/>
<defs>
<filter id="filter0_d" x="0.0275879" y="0.553711" width="112.083" height="73.605" filterUnits="userSpaceOnUse" color-interpolation-filters="sRGB">
<feFlood flood-opacity="0" result="BackgroundImageFix"/>
<feColorMatrix in="SourceAlpha" type="matrix" values="0 0 0 0 0 0 0 0 0 0 0 0 0 0 0 0 0 0 127 0"/>
<feOffset dx="4" dy="4"/>
<feGaussianBlur stdDeviation="2"/>
<feColorMatrix type="matrix" values="0 0 0 0 0.0745098 0 0 0 0 0.133333 0 0 0 0 0.329412 0 0 0 0.07 0"/>
<feBlend mode="normal" in2="BackgroundImageFix" result="effect1_dropShadow"/>
<feBlend mode="normal" in="SourceGraphic" in2="effect1_dropShadow" result="shape"/>
</filter>
</defs>
</svg>
