<svg width="261" height="266" viewBox="0 0 261 266" fill="none" xmlns="http://www.w3.org/2000/svg">
<path d="M76.8079 58.0177L150.449 53.1867C152.039 53.0824 153.617 53.5238 154.922 54.438L214.976 96.4966C217.644 98.3657 218.671 101.829 217.451 104.85L182.441 191.595C181.592 193.7 179.775 195.262 177.566 195.786L112.362 211.255C110.019 211.811 107.555 211.123 105.838 209.435L58.1204 162.511C56.5156 160.933 55.7675 158.68 56.1098 156.455L70.3475 63.938C70.8467 60.694 73.5328 58.2325 76.8079 58.0177Z" fill="#C63B30"/>
<path d="M150.318 51.191L76.6769 56.022C72.4661 56.2982 69.0126 59.463 68.3708 63.6338L54.1331 156.151C53.693 159.011 54.6548 161.908 56.7181 163.937L104.436 210.861C106.643 213.032 109.812 213.915 112.824 213.201L178.028 197.732C180.867 197.058 183.204 195.049 184.296 192.343L219.306 105.599C220.874 101.714 219.554 97.2615 216.123 94.8584L156.07 52.7998C154.391 51.6244 152.362 51.0569 150.318 51.191Z" stroke="#CC2B38" stroke-opacity="0.2" stroke-width="4" stroke-linecap="round"/>
<path fill-rule="evenodd" clip-rule="evenodd" d="M80.8733 57.7512L76.8075 58.0179C73.5324 58.2328 70.8463 60.6943 70.3471 63.9382L56.1094 156.456C55.7671 158.68 56.5152 160.933 58.12 162.512L64.9214 169.2C64.3333 167.954 64.1178 166.544 64.3329 165.147L80.7952 58.173C80.8171 58.0309 80.8432 57.8902 80.8733 57.7512Z" fill="white" fill-opacity="0.2"/>
<path fill-rule="evenodd" clip-rule="evenodd" d="M104.465 208.085L105.838 209.435C107.555 211.124 110.019 211.811 112.362 211.255L177.566 195.786C179.774 195.262 181.592 193.7 182.441 191.595L217.451 104.85C218.671 101.829 217.644 98.366 214.976 96.497L154.922 54.4384C153.617 53.5241 152.039 53.0827 150.449 53.187L144.661 53.5667L202.86 94.3271C205.529 96.1962 206.555 99.6593 205.336 102.681L170.326 189.425C169.477 191.53 167.659 193.092 165.451 193.616L104.465 208.085Z" fill="#132254" fill-opacity="0.2"/>
<path d="M110.034 210.33L153.981 53.7463L214.909 96.7591C217.563 98.6328 218.579 102.086 217.362 105.099L182.439 191.574C181.591 193.675 179.777 195.236 177.572 195.762L111.229 211.573C110.487 211.75 109.828 211.064 110.034 210.33Z" fill="#132254" fill-opacity="0.2"/>
<path fill-rule="evenodd" clip-rule="evenodd" d="M148.174 70.5463L72.5187 161.481L90.2748 166.425L105.93 145.617L144.993 156.495L147.914 182.475L165.397 187.343L148.174 70.5463ZM137.25 109.709L119.806 131.724L140.899 137.732L137.25 109.709Z" fill="white"/>
</svg>
