<svg width="157" height="154" viewBox="0 0 157 154" fill="none" xmlns="http://www.w3.org/2000/svg">
<path d="M117.559 17.6761L81.8421 7.85498" stroke="#132254" stroke-opacity="0.2" stroke-width="4" stroke-linecap="round"/>
<circle cx="73.824" cy="6.20433" r="2.29126" transform="rotate(-159.291 73.824 6.20433)" fill="#132254" fill-opacity="0.2"/>
<rect x="35.1822" y="11.2591" width="121.07" height="109.202" rx="7" transform="rotate(15.5612 35.1822 11.2591)" fill="#2F96F4"/>
<rect x="33.792" y="8.79592" width="125.07" height="113.202" rx="9" transform="rotate(15.5612 33.792 8.79592)" stroke="#3178C6" stroke-opacity="0.2" stroke-width="4"/>
<path d="M56.4508 87.1657L57.9592 81.9121C58.1109 81.384 58.6601 81.0772 59.1893 81.2249L88.3271 89.3595C88.8584 89.5078 89.1692 90.0583 89.0219 90.5898L87.5671 95.8375C87.4191 96.3714 86.8652 96.6832 86.332 96.5328L77.1838 93.9525C76.6488 93.8016 76.0935 94.1159 75.9475 94.6522L67.8107 124.532C67.6635 125.072 67.1014 125.386 66.5641 125.228L59.5283 123.162C59.0062 123.009 58.7025 122.466 58.845 121.941L66.927 92.151C67.071 91.6201 66.7593 91.0726 66.2292 90.9255L57.1446 88.4053C56.609 88.2567 56.2974 87.6999 56.4508 87.1657Z" fill="white"/>
<path fill-rule="evenodd" clip-rule="evenodd" d="M110.279 145.53L115.775 147.06C119.5 148.098 123.359 145.919 124.397 142.195L149.936 50.4824C150.973 46.7581 148.795 42.8983 145.071 41.8611L142.62 41.1786C142.795 42.1754 142.756 43.2261 142.467 44.2663L115.657 140.541C114.924 143.171 112.785 145.029 110.279 145.53Z" fill="#132254" fill-opacity="0.2"/>
<path fill-rule="evenodd" clip-rule="evenodd" d="M47.4487 14.7207L42.003 13.2066C38.2792 12.1712 34.421 14.3522 33.3854 18.0779L7.88309 109.828C6.84751 113.554 9.02671 117.413 12.7505 118.449L15.1467 119.115C14.9711 118.119 15.0097 117.069 15.2986 116.03L42.0719 19.7125C42.8031 17.0819 44.9427 15.2217 47.4487 14.7207Z" fill="white" fill-opacity="0.2"/>
<path d="M102.912 101.861C107.53 99.3496 113.362 102.715 116.487 105.315C117.096 105.821 118.071 105.537 118.25 104.766L119.525 99.2747C119.62 98.8648 119.441 98.4334 119.085 98.2096C104.999 89.363 96.3854 94.7376 93.8159 98.5919C89.2081 106.038 96.0906 113.752 100.425 117.069C102.355 118.546 103.358 120.226 103.563 121.495C104.334 126.255 101.041 127.397 98.2219 126.734C94.8184 125.933 91.0276 123.386 88.7218 121.37C88.1306 120.853 87.155 121.108 86.9507 121.866L85.3916 127.649C85.286 128.041 85.4255 128.459 85.7571 128.693C89.8894 131.61 96.2857 133.657 99.0747 134.338C108.967 136.498 114.044 129.47 114.496 125.525C115.324 118.297 107.259 111.617 103.339 108.044C100.117 104.759 101.562 102.595 102.912 101.861Z" fill="white"/>
</svg>
