<svg width="769" height="771" viewBox="0 0 769 771" fill="none" xmlns="http://www.w3.org/2000/svg">
<path d="M461.183 79.0361L386.635 102.379C363.749 109.545 311.188 114.718 287.769 116.409C248.002 116.211 211.691 123.757 198.506 127.556C95.0658 148.781 53.2249 238.13 45.2345 280.152C11.1815 477.329 129.151 583.174 187.963 619.613C365.945 746.7 527.511 671.608 586.046 618.176C703.989 526.995 713.948 368.879 720.062 300.148C731.505 171.522 672.847 102.983 642.088 84.7922C599.514 51.9072 525.313 53.314 461.183 79.0361Z" fill="#E4EBEF" fill-opacity="0.5"/>
<path d="M453.822 86.2062L383.653 118.429C362.111 128.321 311.225 139.975 288.475 144.566C249.46 149.351 214.803 161.298 202.352 166.673C103.59 200.438 73.7558 293.282 71.1839 335.483C62.4888 533.073 191.409 622.077 253.636 650.44C444.056 752.756 593.062 658.897 643.762 599.178C747.983 495.008 737.946 338.733 735.334 270.579C730.445 143.033 664.35 83.1787 631.914 69.195C586.053 42.284 513.478 52.9556 453.822 86.2062Z" fill="#E4EBEF" fill-opacity="0.5"/>
<path d="M453.822 86.2062L383.653 118.429C362.111 128.321 311.225 139.975 288.475 144.566C249.46 149.351 214.803 161.298 202.352 166.673C103.59 200.438 73.7558 293.282 71.1839 335.483C62.4888 533.073 191.409 622.077 253.636 650.44C444.056 752.756 593.062 658.897 643.762 599.178C747.983 495.008 737.946 338.733 735.334 270.579C730.445 143.033 664.35 83.1787 631.914 69.195C586.053 42.284 513.478 52.9556 453.822 86.2062Z" fill="#E4EBEF" fill-opacity="0.9"/>
<path d="M482.752 88.2184L412.583 120.441C391.041 130.333 340.155 141.987 317.405 146.578C278.39 151.364 243.734 163.31 231.282 168.685C132.52 202.45 102.686 295.294 100.114 337.495C91.4189 535.085 220.339 624.089 282.566 652.452C472.986 754.768 621.992 660.909 672.692 601.191C776.913 497.02 766.877 340.745 764.264 272.591C759.375 145.045 693.28 85.1908 660.844 71.2071C614.983 44.2961 542.408 54.9677 482.752 88.2184Z" fill="#E4EBEF" fill-opacity="0.5"/>
<ellipse cx="423.167" cy="759.941" rx="212.567" ry="10.941" fill="#E4EBEF" fill-opacity="0.5"/>
</svg>
