<svg width="765" height="739" viewBox="0 0 765 739" fill="none" xmlns="http://www.w3.org/2000/svg">
<path d="M392.398 52.9413L321.04 84.7287C299.133 94.4874 247.521 105.69 224.453 110.071C184.929 114.462 149.731 126.148 137.072 131.442C36.7714 164.459 5.51815 258.04 2.42917 300.702C-8.64798 500.491 120.745 592.019 183.369 621.43C374.824 727.135 526.648 633.904 578.627 574.076C685.264 469.896 676.914 311.687 675.058 242.709C671.584 113.622 605.411 52.3086 572.759 37.7878C526.674 10.0342 453.132 19.9922 392.398 52.9413Z" fill="#E4EBEF" fill-opacity="0.3"/>
<path d="M408.264 52.7271L340.5 89.7404C319.697 101.103 269.742 116.26 247.365 122.418C208.776 129.899 175.032 144.222 162.984 150.448C66.8025 190.984 43.4819 285.674 43.8442 327.952C48.8795 525.669 183.664 605.514 247.709 629.49C444.77 718.348 586.904 614.377 633.339 551.284C730.081 440.134 709.225 284.932 701.891 217.123C688.164 90.2237 618.076 35.0997 584.747 23.4002C537.129 -0.263907 465.47 15.4174 408.264 52.7271Z" fill="#E4EBEF" fill-opacity="0.5"/>
<path d="M408.264 52.7271L340.5 89.7404C319.697 101.103 269.742 116.26 247.365 122.418C208.776 129.899 175.032 144.222 162.984 150.448C66.8025 190.984 43.4819 285.674 43.8442 327.952C48.8795 525.669 183.664 605.514 247.709 629.49C444.77 718.348 586.904 614.377 633.339 551.284C730.081 440.134 709.225 284.932 701.891 217.123C688.164 90.2237 618.076 35.0997 584.747 23.4002C537.129 -0.263907 465.47 15.4174 408.264 52.7271Z" fill="#E4EBEF" fill-opacity="0.7"/>
<path d="M437.264 52.7271L369.5 89.7404C348.697 101.103 298.742 116.26 276.365 122.418C237.776 129.899 204.032 144.222 191.984 150.448C95.8024 190.984 72.4818 285.674 72.8441 327.952C77.8793 525.669 212.664 605.514 276.709 629.49C473.769 718.348 615.904 614.377 662.339 551.284C759.081 440.134 738.225 284.932 730.891 217.123C717.164 90.2237 647.075 35.0997 613.747 23.4002C566.129 -0.263907 494.47 15.4174 437.264 52.7271Z" fill="#E4EBEF" fill-opacity="0.3"/>
<ellipse cx="403.502" cy="727.156" rx="212.567" ry="10.941" fill="#E4EBEF" fill-opacity="0.5"/>
</svg>
