<svg width="192" height="206" viewBox="0 0 192 206" fill="none" xmlns="http://www.w3.org/2000/svg">
<path d="M133.265 9.47828L15.6757 56.2013C11.8675 57.7144 10.1677 62.1606 11.9951 65.8283L70.8843 184.019C72.184 186.627 74.964 188.158 77.8632 187.861L131.899 182.323C133.182 182.192 134.404 181.708 135.43 180.926L178.104 148.382C180.421 146.615 181.401 143.597 180.565 140.806L142.555 13.9741C141.376 10.0408 137.081 7.96205 133.265 9.47828Z" fill="#FFCB39"/>
<path d="M132.526 7.61963L14.9371 54.3426C10.0409 56.2881 7.85542 62.0046 10.205 66.7202L69.0942 184.911C70.7653 188.265 74.3395 190.232 78.0671 189.85L132.103 184.313C133.753 184.144 135.324 183.522 136.643 182.516L179.317 149.972C182.296 147.7 183.556 143.821 182.48 140.232L144.471 13.3999C142.955 8.34281 137.433 5.67019 132.526 7.61963Z" stroke="#FFCB39" stroke-opacity="0.2" stroke-width="4"/>
<path fill-rule="evenodd" clip-rule="evenodd" d="M170.32 154.318C171.794 152.544 172.321 150.121 171.644 147.848L131.772 13.9481C131.403 12.7087 130.725 11.653 129.85 10.8352L133.265 9.47818C137.081 7.96194 141.376 10.0407 142.555 13.974L180.565 140.806C181.401 143.597 180.421 146.615 178.104 148.382L170.32 154.318Z" fill="#132254" fill-opacity="0.05"/>
<path fill-rule="evenodd" clip-rule="evenodd" d="M17.3793 53.6454L18.0666 55.8376C18.1723 56.1747 18.3034 56.5034 18.4587 56.8207L82.1238 186.899L81.1283 187.502C77.6322 189.617 73.0747 188.301 71.2451 184.647L11.9376 66.2069C10.633 63.6015 11.0788 60.4604 13.0568 58.3208L17.3793 53.6454Z" fill="white" fill-opacity="0.3"/>
<path d="M79.4616 62.7178L67.0398 67.6772C66.5299 67.8808 66.2795 68.4575 66.4789 68.9691L94.2981 140.338C94.536 140.948 94.1326 141.618 93.4819 141.694L68.6973 144.576C68.048 144.651 67.6445 145.319 67.8798 145.929L73.0449 159.319C73.2083 159.743 73.6368 160.003 74.0882 159.953L115.936 155.308C116.591 155.235 116.998 154.558 116.755 153.945L80.7618 63.2776C80.5578 62.7635 79.9752 62.5127 79.4616 62.7178Z" fill="white"/>
<path d="M131.393 24.0268L82.0392 43.0964C80.4742 43.701 79.7093 45.4715 80.3417 47.0255L129.019 166.647C129.757 168.461 132.007 169.093 133.581 167.929L168.167 142.36C169.184 141.608 169.62 140.298 169.257 139.086L135.348 25.9637C134.846 24.289 133.024 23.3966 131.393 24.0268Z" fill="white" fill-opacity="0.3"/>
<path d="M137.82 55.0729L134.176 42.162C134.014 41.5884 133.389 41.2829 132.837 41.5072L93.4054 57.5212C92.8948 57.7285 92.6482 58.3099 92.854 58.8211L114.661 113.003C114.889 113.57 115.568 113.802 116.095 113.492L135.626 102.019C136.193 101.686 136.922 101.982 137.097 102.616L142.009 120.436C142.119 120.832 141.974 121.255 141.645 121.502L124.111 134.654C123.75 134.925 123.615 135.405 123.782 135.824L128.997 148.918C129.242 149.533 130.005 149.744 130.531 149.344L159.086 127.619C159.419 127.366 159.559 126.933 159.438 126.533L145.301 79.9688C145.114 79.3518 144.4 79.0707 143.842 79.3945L123.537 91.1802C123.005 91.4888 122.324 91.2491 122.102 90.6755L113.041 67.2043C112.845 66.696 113.092 66.1242 113.596 65.9183L137.236 56.2704C137.707 56.0781 137.958 55.5626 137.82 55.0729Z" fill="white"/>
</svg>
